<svg xmlns="http://www.w3.org/2000/svg" width="27" height="28" viewBox="0 0 27 28">
    <path fill="#999" fill-rule="nonzero" d="M13.5 0C6.044 0 0 6.269 0 14c0 7.733 6.044 14 13.5 14C20.955 28 27 21.733 27 14c0-7.731-6.045-14-13.5-14zm6.75 20.69h-2.894v-4.829c0-1.213-.419-2.042-1.467-2.042-.799 0-1.275.56-1.484 1.099-.077.193-.096.46-.096.731v5.041h-2.893s.037-8.18 0-9.026h2.893v1.278c.386-.617 1.073-1.49 2.608-1.49 1.904 0 3.333 1.289 3.333 4.062v5.176zm-13.33 0v-9.026h2.895v9.026H6.92zm1.447-10.26h-.019c-.97 0-1.598-.694-1.598-1.56 0-.886.647-1.56 1.636-1.56.99 0 1.6.674 1.618 1.56 0 .866-.627 1.56-1.637 1.56z"/>
</svg>
