<svg xmlns="http://www.w3.org/2000/svg" width="28" height="28" viewBox="0 0 28 28">
    <path fill="#999" fill-rule="nonzero" d="M19.567 11.146c.006.123.009.246.009.37 0 3.796-2.89 8.173-8.173 8.173A8.126 8.126 0 0 1 7 18.4c.226.026.454.039.685.039a5.754 5.754 0 0 0 3.567-1.229 2.877 2.877 0 0 1-2.682-1.994 2.898 2.898 0 0 0 1.296-.05 2.876 2.876 0 0 1-2.303-2.816v-.036c.387.215.83.344 1.3.359a2.868 2.868 0 0 1-1.277-2.39c0-.527.142-1.021.389-1.444a8.15 8.15 0 0 0 5.92 3 2.875 2.875 0 0 1 4.895-2.62 5.724 5.724 0 0 0 1.824-.697 2.888 2.888 0 0 1-1.263 1.59A5.727 5.727 0 0 0 21 9.659a5.817 5.817 0 0 1-1.433 1.487zM14 0C6.269 0 0 6.269 0 14c0 7.733 6.269 14 14 14 7.732 0 14-6.267 14-14 0-7.731-6.268-14-14-14z"/>
</svg>
